<?xml version="1.0" encoding="utf-8"?>
<!-- Generator: Adobe Illustrator 19.2.1, SVG Export Plug-In . SVG Version: 6.00 Build 0)  -->
<svg version="1.1" id="Layer_1" xmlns="http://www.w3.org/2000/svg" xmlns:xlink="http://www.w3.org/1999/xlink" x="0px" y="0px"
	 viewBox="0 0 492.3 160" enable-background="new 0 0 492.3 160" xml:space="preserve">
<title>romefeller-logo-1</title>
<rect x="-16" y="4.6" display="none" fill="#FBC02D" width="504" height="155.4"/>
<polygon fill="#9CCC65" points="0,40 69.5,0 139,40 139,120 69.5,160 0,120 "/>
<polygon fill="#9E9D24" points="0,40 69.5,0 139,40 139,120 69.5,160 0,120 "/>
<polygon fill="#333333" points="4,42.3 69.5,4.6 135,42.3 135,117.7 69.5,155.4 4,117.7 "/>
<g>
	<defs>
		<rect id="SVGID_1_" x="13.5" y="35.2" width="108.9" height="93.8"/>
	</defs>
	<clipPath id="SVGID_2_">
		<use xlink:href="#SVGID_1_"  overflow="visible"/>
	</clipPath>
	<g clip-path="url(#SVGID_2_)">
		<g>
			<defs>
				<rect id="SVGID_3_" x="13.5" y="35.2" width="108.9" height="93.8"/>
			</defs>
			<clipPath id="SVGID_4_">
				<use xlink:href="#SVGID_3_"  overflow="visible"/>
			</clipPath>
			<g clip-path="url(#SVGID_4_)">
				<path fill="#FFFFFF" d="M79.5,84.3c0.5-0.9,0.7-1.8,0.7-2.8c0-1.7-0.4-3.4-1.1-5c-0.7-1.7-1.6-3.3-2.7-4.8
					c-1.1-1.4-2.4-2.7-3.9-3.6c-1.3-0.9-2.9-1.4-4.5-1.4c-1.2,0-2.5,0.1-3.6,0.4c-1.3,0.3-2.5,0.8-3.6,1.4c-0.6,0.2-1.1,0.6-1.6,0.9
					c-0.5,0.4-1.1,0.8-1.6,1.2s-1,0.7-1.3,1c-0.3,0.3-0.7,0.4-1.1,0.4c-1.4,0-2.8-0.3-4-0.9c-1.3-0.6-2-1.3-2-2.1
					c0.1-0.9,0.6-1.7,1.3-2.3c1.1-1,2.3-1.8,3.6-2.4c1.8-0.8,3.6-1.5,5.6-1.9c2.3-0.5,4.6-0.8,7-0.8c3.3-0.1,6.7,0.5,9.7,1.9
					c2.5,1.3,4.7,3.1,6.4,5.4c1.8,2.5,3.3,5.3,4.3,8.2c1.1,3.2,2.4,6.7,3.6,10.5c1.3,3.8,2.7,7.9,4.3,12.3c1.8,4.6,3.9,9.1,6.4,13.4
					c1,1.8,2.2,3.5,3.6,5c1.3,1.4,2.7,2.7,3.9,3.9s2.3,2.1,3.1,2.9c0.7,0.5,1.2,1.3,1.3,2.2c0,0.3-0.5,0.7-1.5,1.1
					c-0.9,0.4-1.9,0.7-2.8,0.7c-1.1,0-2.1-0.1-3.1-0.3c-1.3-0.1-2.6-0.6-3.6-1.4c-2.4-2-4.6-4.3-6.5-6.9c-1.9-2.6-3.6-5.4-5-8.3
					c-1.4-2.9-2.7-5.9-3.8-8.9c-1.1-3-2.1-6-2.8-8.8c-0.1-0.6-0.6-1-1.2-1c-0.6,0.1-1,0.5-1.2,1.1c-2.3,4.2-4.8,8.3-7.6,12.6
					c-3.1,4.8-6.5,9.3-10.3,13.6c-0.6,0.6-1.1,1.4-1.7,2c-0.6,0.7-1.2,1.3-1.9,1.9c-0.7,0.6-1.5,1.1-2.3,1.4
					c-0.9,0.4-1.9,0.6-2.8,0.6c-1.5,0-3-0.4-4.3-1c-1.3-0.6-2.1-1.4-2.1-2.3c0-0.4,0.1-0.8,0.4-1.1c0.4-0.4,0.8-0.7,1.3-1.1
					c0.6-0.4,1.3-0.9,2.1-1.6c1.1-0.9,2.2-1.8,3.2-2.7c2.6-2.6,5.1-5.2,7.4-7.9c2.3-2.7,4.5-5.5,6.5-8.3s3.8-5.6,5.6-8.4
					S78.2,86.9,79.5,84.3"/>
				<path fill="#FFFFFF" d="M23.2,91.5c1.7-15.8,13.6-28.8,27-36.3c9.5-5.3,21-7.5,31.7-8.8c6.1-0.8,12.3-1.1,18.4-0.7
					c2.3,0.2,4.6,0.6,6.8,1.2c1.7,0.4,3.2,1.3,4.5,2.4c0.8,1,1.1,2.2,0.9,3.5c-0.5,2.5-2.4,4.6-4.1,6.3c-4.3,4.3-9.9,7.3-15.4,9.8
					c-0.9,0.4-1.8,0.8-2.9,1.1c-5.9,2-3.4,11.5,2.6,9.4c10.8-3.7,24.5-11,28.7-22.2c2.1-5.4,0.7-11.5-3.6-15.4
					c-4.1-3.7-9.6-5-14.9-5.6c-11.9-1.4-24.4,0.4-36,2.9c-13.2,2.8-25.1,8.3-35.1,17.5C21.6,65.5,15.1,78,13.5,91.5
					c-0.3,2.6,2.4,4.9,4.9,4.9C21.2,96.4,23,94.2,23.2,91.5"/>
			</g>
		</g>
	</g>
</g>
<path display="none" fill="#FFFFFF" d="M69.5,4.1l65.9,38V118l-65.9,38L3.6,118V42.1L69.5,4.1 M69.5,0L0,40v80l69.5,40l69.5-40V40
	L69.5,0C69.5,0,69.5,0,69.5,0z"/>
<g>
	<path fill="#333333" d="M188.9,85.3c0,3.2-0.5,6.1-1.4,8.6c-0.9,2.6-2.2,4.8-3.9,6.6c-1.7,1.8-3.7,3.3-6,4.3
		c-2.3,1-4.8,1.5-7.5,1.5c-2.7,0-5.2-0.5-7.5-1.5c-2.3-1-4.3-2.4-6-4.3c-1.7-1.8-3-4.1-3.9-6.6c-0.9-2.6-1.4-5.4-1.4-8.6
		c0-3.1,0.5-6,1.4-8.6c0.9-2.6,2.2-4.8,3.9-6.7c1.7-1.8,3.7-3.3,6-4.3s4.8-1.5,7.5-1.5c2.7,0,5.2,0.5,7.5,1.5c2.3,1,4.3,2.4,6,4.3
		c1.7,1.8,3,4.1,3.9,6.7C188.4,79.3,188.9,82.2,188.9,85.3z M181.4,85.3c0-4.5-1-8.1-3-10.7c-2-2.6-4.8-4-8.3-4
		c-3.5,0-6.3,1.3-8.3,4c-2,2.6-3,6.2-3,10.7c0,4.5,1,8.1,3,10.7c2,2.6,4.8,4,8.3,4c3.5,0,6.2-1.3,8.3-4
		C180.4,93.4,181.4,89.8,181.4,85.3z"/>
	<path fill="#333333" d="M199,66.4c1.6-0.4,3.8-0.8,6.5-1.3c2.7-0.5,5.8-0.7,9.4-0.7c2.6,0,4.7,0.3,6.5,1c1.7,0.7,3.2,1.7,4.4,3
		c0.4-0.3,0.9-0.6,1.7-1.1c0.8-0.5,1.7-0.9,2.8-1.3c1.1-0.4,2.4-0.8,3.8-1.2c1.4-0.3,2.9-0.5,4.5-0.5c3.1,0,5.6,0.5,7.5,1.3
		c2,0.9,3.5,2.2,4.6,3.8c1.1,1.6,1.8,3.6,2.2,5.9c0.4,2.3,0.6,4.7,0.6,7.4v22.5h-7.2V84.4c0-2.4-0.1-4.4-0.3-6.1
		c-0.2-1.7-0.7-3.1-1.3-4.2c-0.6-1.1-1.5-2-2.6-2.5c-1.1-0.5-2.5-0.8-4.3-0.8c-2.4,0-4.4,0.3-6,1c-1.6,0.6-2.6,1.2-3.2,1.7
		c0.4,1.3,0.7,2.8,0.9,4.4c0.2,1.6,0.3,3.3,0.3,5v22.5h-7.2V84.4c0-2.4-0.1-4.4-0.4-6.1c-0.3-1.7-0.7-3.1-1.3-4.2
		c-0.6-1.1-1.5-2-2.6-2.5c-1.1-0.5-2.5-0.8-4.2-0.8c-0.7,0-1.5,0-2.3,0.1c-0.8,0.1-1.6,0.1-2.3,0.2c-0.7,0.1-1.4,0.2-2,0.3
		c-0.6,0.1-1,0.2-1.2,0.2v33.8H199V66.4z"/>
	<path fill="#333333" d="M263,85.4c0-3.5,0.5-6.6,1.5-9.3c1-2.6,2.4-4.8,4.1-6.6c1.7-1.7,3.6-3.1,5.9-3.9c2.2-0.9,4.5-1.3,6.8-1.3
		c5.4,0,9.5,1.7,12.4,5c2.9,3.4,4.3,8.5,4.3,15.4c0,0.3,0,0.7,0,1.2c0,0.5,0,0.9-0.1,1.3h-27.4c0.3,4.2,1.5,7.3,3.6,9.5
		c2.1,2.2,5.4,3.2,9.9,3.2c2.5,0,4.6-0.2,6.4-0.7c1.7-0.4,3-0.9,3.9-1.3l1,6c-0.9,0.5-2.4,1-4.6,1.5c-2.2,0.5-4.7,0.8-7.4,0.8
		c-3.5,0-6.5-0.5-9-1.6s-4.6-2.5-6.3-4.4c-1.6-1.8-2.9-4-3.7-6.6S263,88.4,263,85.4z M290.5,81.5c0.1-3.2-0.8-5.9-2.4-8
		c-1.7-2.1-4-3.1-6.9-3.1c-1.6,0-3.1,0.3-4.4,1c-1.3,0.6-2.3,1.5-3.2,2.5c-0.9,1-1.6,2.2-2,3.5c-0.5,1.3-0.8,2.7-1,4.1H290.5z"/>
	<path fill="#333333" d="M323.9,45.6c2.1,0,3.9,0.2,5.4,0.5c1.5,0.3,2.6,0.6,3.2,0.8l-1.3,6.2c-0.6-0.3-1.5-0.6-2.6-0.9
		c-1.1-0.3-2.5-0.4-4.2-0.4c-3.3,0-5.7,0.9-7,2.7c-1.3,1.8-2,4.3-2,7.4v3.5h15.4v6h-15.4v34h-7.2V61.7c0-5.1,1.3-9.1,3.8-11.9
		C314.6,47,318.6,45.6,323.9,45.6z"/>
	<path fill="#333333" d="M335.8,85.4c0-3.5,0.5-6.6,1.5-9.3c1-2.6,2.4-4.8,4.1-6.6c1.7-1.7,3.6-3.1,5.9-3.9c2.2-0.9,4.5-1.3,6.8-1.3
		c5.4,0,9.5,1.7,12.4,5c2.9,3.4,4.3,8.5,4.3,15.4c0,0.3,0,0.7,0,1.2c0,0.5,0,0.9-0.1,1.3h-27.4c0.3,4.2,1.5,7.3,3.6,9.5
		c2.1,2.2,5.4,3.2,9.9,3.2c2.5,0,4.6-0.2,6.4-0.7c1.7-0.4,3-0.9,3.9-1.3l1,6c-0.9,0.5-2.4,1-4.6,1.5c-2.2,0.5-4.7,0.8-7.4,0.8
		c-3.5,0-6.5-0.5-9-1.6s-4.6-2.5-6.3-4.4c-1.6-1.8-2.9-4-3.7-6.6S335.8,88.4,335.8,85.4z M363.3,81.5c0.1-3.2-0.8-5.9-2.4-8
		c-1.7-2.1-4-3.1-6.9-3.1c-1.6,0-3.1,0.3-4.4,1c-1.3,0.6-2.3,1.5-3.2,2.5c-0.9,1-1.6,2.2-2,3.5c-0.5,1.3-0.8,2.7-1,4.1H363.3z"/>
	<path fill="#333333" d="M393.1,106.1c-4.4-0.1-7.5-1.1-9.4-2.8c-1.8-1.8-2.8-4.6-2.8-8.4v-48l7.2-1.2v48.1c0,1.2,0.1,2.2,0.3,2.9
		c0.2,0.8,0.5,1.4,1,1.8c0.5,0.5,1.1,0.8,1.8,1c0.8,0.2,1.7,0.4,2.8,0.6L393.1,106.1z"/>
	<path fill="#333333" d="M414.1,106.1c-4.4-0.1-7.5-1.1-9.4-2.8c-1.8-1.8-2.8-4.6-2.8-8.4v-48l7.2-1.2v48.1c0,1.2,0.1,2.2,0.3,2.9
		c0.2,0.8,0.5,1.4,1,1.8c0.5,0.5,1.1,0.8,1.8,1c0.8,0.2,1.7,0.4,2.8,0.6L414.1,106.1z"/>
	<path fill="#333333" d="M420.9,85.4c0-3.5,0.5-6.6,1.5-9.3c1-2.6,2.4-4.8,4.1-6.6c1.7-1.7,3.6-3.1,5.9-3.9c2.2-0.9,4.5-1.3,6.8-1.3
		c5.4,0,9.5,1.7,12.4,5c2.9,3.4,4.3,8.5,4.3,15.4c0,0.3,0,0.7,0,1.2c0,0.5,0,0.9-0.1,1.3h-27.4c0.3,4.2,1.5,7.3,3.6,9.5
		c2.1,2.2,5.4,3.2,9.9,3.2c2.5,0,4.6-0.2,6.4-0.7c1.7-0.4,3-0.9,3.9-1.3l1,6c-0.9,0.5-2.4,1-4.6,1.5c-2.2,0.5-4.7,0.8-7.4,0.8
		c-3.5,0-6.5-0.5-9-1.6s-4.6-2.5-6.3-4.4c-1.6-1.8-2.9-4-3.7-6.6S420.9,88.4,420.9,85.4z M448.4,81.5c0.1-3.2-0.8-5.9-2.4-8
		c-1.7-2.1-4-3.1-6.9-3.1c-1.6,0-3.1,0.3-4.4,1c-1.3,0.6-2.3,1.5-3.2,2.5c-0.9,1-1.6,2.2-2,3.5c-0.5,1.3-0.8,2.7-1,4.1H448.4z"/>
	<path fill="#333333" d="M480.9,64.4c0.6,0,1.3,0,2.1,0.1c0.8,0.1,1.6,0.2,2.3,0.3c0.8,0.1,1.5,0.3,2.1,0.4c0.6,0.1,1.1,0.2,1.4,0.3
		l-1.2,6.2c-0.6-0.2-1.5-0.4-2.8-0.7c-1.3-0.3-3-0.4-5-0.4c-1.3,0-2.7,0.1-4,0.4c-1.3,0.3-2.2,0.5-2.6,0.6v33.6h-7.2V67
		c1.7-0.6,3.8-1.2,6.3-1.7C475,64.7,477.8,64.4,480.9,64.4z"/>
</g>
</svg>
